<svg xmlns="http://www.w3.org/2000/svg" width="900" height="290" style="font-family: -apple-system, BlinkMacSystemFont, 'Segoe UI', Helvetica, Arial, sans-serif;">
  <rect width="100%" height="100%" fill="white"/>
  <g>
    <line x1="40" y1="220.00" x2="860" y2="220.00" stroke="#e5e7eb"/><text x="32" y="224.00" font-size="10" fill="#111827" text-anchor="end">0</text><line x1="40" y1="175.00" x2="860" y2="175.00" stroke="#e5e7eb"/><text x="32" y="179.00" font-size="10" fill="#111827" text-anchor="end">1.2k</text><line x1="40" y1="130.00" x2="860" y2="130.00" stroke="#e5e7eb"/><text x="32" y="134.00" font-size="10" fill="#111827" text-anchor="end">2.5k</text><line x1="40" y1="85.00" x2="860" y2="85.00" stroke="#e5e7eb"/><text x="32" y="89.00" font-size="10" fill="#111827" text-anchor="end">3.8k</text><line x1="40" y1="40.00" x2="860" y2="40.00" stroke="#e5e7eb"/><text x="32" y="44.00" font-size="10" fill="#111827" text-anchor="end">5k</text>
    <line x1="40.00" y1="40" x2="40.00" y2="220" stroke="#e5e7eb" opacity="0.5"/><line x1="120.44" y1="40" x2="120.44" y2="220" stroke="#e5e7eb" opacity="0.5"/><line x1="200.89" y1="40" x2="200.89" y2="220" stroke="#e5e7eb" opacity="0.5"/><line x1="281.33" y1="40" x2="281.33" y2="220" stroke="#e5e7eb" opacity="0.5"/><line x1="361.77" y1="40" x2="361.77" y2="220" stroke="#e5e7eb" opacity="0.5"/><line x1="442.22" y1="40" x2="442.22" y2="220" stroke="#e5e7eb" opacity="0.5"/><line x1="522.66" y1="40" x2="522.66" y2="220" stroke="#e5e7eb" opacity="0.5"/><line x1="603.10" y1="40" x2="603.10" y2="220" stroke="#e5e7eb" opacity="0.5"/><line x1="683.54" y1="40" x2="683.54" y2="220" stroke="#e5e7eb" opacity="0.5"/><line x1="763.99" y1="40" x2="763.99" y2="220" stroke="#e5e7eb" opacity="0.5"/><line x1="844.43" y1="40" x2="844.43" y2="220" stroke="#e5e7eb" opacity="0.5"/>
    <line x1="40" y1="220" x2="860" y2="220" stroke="#9ca3af"/>
    <line x1="40" y1="40"   x2="40"   y2="220" stroke="#9ca3af"/>
    <path d="M 40.00 198.65 L 42.59 198.40 L 45.19 198.40 L 47.78 180.47 L 50.38 178.31 L 52.97 178.31 L 55.57 176.80 L 58.16 175.29 L 60.76 175.29 L 63.35 175.29 L 65.95 175.29 L 68.54 175.29 L 71.14 175.29 L 73.73 175.29 L 76.33 175.29 L 78.92 175.29 L 81.52 175.29 L 84.11 175.29 L 86.71 175.29 L 89.30 175.29 L 91.90 175.29 L 94.49 175.29 L 97.09 175.68 L 99.68 175.65 L 102.28 175.50 L 104.87 175.50 L 107.47 175.50 L 110.06 175.50 L 112.66 175.50 L 115.25 175.50 L 117.85 175.50 L 120.44 175.50 L 123.04 175.50 L 125.63 175.50 L 128.23 175.50 L 130.82 175.50 L 133.42 175.50 L 136.01 175.50 L 138.61 175.50 L 141.20 175.50 L 143.80 175.50 L 146.39 175.50 L 148.99 175.50 L 151.58 175.50 L 154.18 175.50 L 156.77 175.50 L 159.37 175.50 L 161.96 175.50 L 164.56 175.50 L 167.15 175.50 L 169.75 175.50 L 172.34 175.50 L 174.94 175.50 L 177.53 175.50 L 180.13 175.50 L 182.72 175.50 L 185.32 175.50 L 187.91 175.50 L 190.51 175.50 L 193.10 175.50 L 195.70 175.50 L 198.29 175.50 L 200.89 175.50 L 203.48 175.50 L 206.08 175.50 L 208.67 175.50 L 211.27 175.50 L 213.86 175.50 L 216.46 175.50 L 219.05 175.50 L 221.65 175.50 L 224.24 175.50 L 226.84 175.50 L 229.43 175.50 L 232.03 175.50 L 234.62 175.50 L 237.22 175.50 L 239.81 175.50 L 242.41 175.50 L 245.00 175.50 L 247.59 175.50 L 250.19 175.50 L 252.78 175.50 L 255.38 175.50 L 257.97 175.50 L 260.57 175.50 L 263.16 175.50 L 265.76 175.50 L 268.35 175.50 L 270.95 175.50 L 273.54 175.50 L 276.14 175.50 L 278.73 175.50 L 281.33 175.50 L 283.92 175.50 L 286.52 175.50 L 289.11 175.50 L 291.71 175.50 L 294.30 175.50 L 296.90 175.50 L 299.49 175.50 L 302.09 175.50 L 304.68 175.50 L 307.28 175.50 L 309.87 175.50 L 312.47 175.50 L 315.06 175.50 L 317.66 175.50 L 320.25 175.50 L 322.85 175.50 L 325.44 175.50 L 328.04 175.50 L 330.63 175.50 L 333.23 175.50 L 335.82 175.50 L 338.42 175.50 L 341.01 175.50 L 343.61 175.50 L 346.20 175.50 L 348.80 175.50 L 351.39 175.50 L 353.99 175.50 L 356.58 175.50 L 359.18 175.50 L 361.77 175.50 L 364.37 175.50 L 366.96 175.50 L 369.56 175.50 L 372.15 175.50 L 374.75 175.50 L 377.34 175.50 L 379.94 175.50 L 382.53 175.50 L 385.13 175.50 L 387.72 175.50 L 390.32 175.50 L 392.91 175.50 L 395.51 175.50 L 398.10 175.50 L 400.70 175.50 L 403.29 175.50 L 405.89 175.50 L 408.48 175.50 L 411.08 175.58 L 413.67 172.16 L 416.27 164.56 L 418.86 164.56 L 421.46 164.56 L 424.05 164.56 L 426.65 164.56 L 429.24 160.31 L 431.84 160.31 L 434.43 160.31 L 437.03 160.31 L 439.62 160.31 L 442.22 160.31 L 444.81 160.31 L 447.41 160.31 L 450.00 160.31 L 452.59 160.31 L 455.19 160.31 L 457.78 160.31 L 460.38 160.31 L 462.97 160.31 L 465.57 160.31 L 468.16 160.31 L 470.76 160.31 L 473.35 160.31 L 475.95 160.31 L 478.54 160.31 L 481.14 160.31 L 483.73 160.31 L 486.33 160.31 L 488.92 160.31 L 491.52 160.31 L 494.11 160.31 L 496.71 160.31 L 499.30 160.31 L 501.90 160.31 L 504.49 160.31 L 507.09 160.31 L 509.68 160.31 L 512.28 160.31 L 514.87 160.31 L 517.47 160.31 L 520.06 160.31 L 522.66 160.31 L 525.25 160.31 L 527.85 160.31 L 530.44 160.31 L 533.04 160.31 L 535.63 160.31 L 538.23 160.31 L 540.82 160.31 L 543.42 160.31 L 546.01 160.31 L 548.61 160.31 L 551.20 160.31 L 553.80 160.31 L 556.39 160.31 L 558.99 160.31 L 561.58 160.31 L 564.18 160.31 L 566.77 160.31 L 569.37 160.31 L 571.96 160.31 L 574.56 160.31 L 577.15 160.31 L 579.75 160.31 L 582.34 160.31 L 584.94 160.31 L 587.53 160.31 L 590.13 160.31 L 592.72 160.31 L 595.32 160.31 L 597.91 160.31 L 600.51 160.31 L 603.10 160.31 L 605.70 160.31 L 608.29 160.46 L 610.89 160.31 L 613.48 160.31 L 616.08 160.31 L 618.67 160.31 L 621.27 160.31 L 623.86 160.31 L 626.46 160.31 L 629.05 160.31 L 631.65 160.31 L 634.24 160.31 L 636.84 160.31 L 639.43 160.31 L 642.03 160.31 L 644.62 160.31 L 647.22 160.31 L 649.81 160.31 L 652.41 160.31 L 655.00 160.31 L 657.59 160.31 L 660.19 160.31 L 662.78 160.31 L 665.38 160.31 L 667.97 160.31 L 670.57 160.31 L 673.16 160.31 L 675.76 160.31 L 678.35 160.31 L 680.95 160.31 L 683.54 160.31 L 686.14 159.99 L 688.73 151.82 L 691.33 151.82 L 693.92 150.88 L 696.52 143.90 L 699.11 141.05 L 701.71 139.22 L 704.30 138.42 L 706.90 134.10 L 709.49 129.42 L 712.09 126.72 L 714.68 123.70 L 717.28 119.56 L 719.87 117.29 L 722.47 114.45 L 725.06 112.04 L 727.66 111.82 L 730.25 111.60 L 732.85 111.75 L 735.44 111.75 L 738.04 111.75 L 740.63 111.75 L 743.23 111.75 L 745.82 111.75 L 748.42 111.75 L 751.01 111.75 L 753.61 111.75 L 756.20 108.29 L 758.80 106.31 L 761.39 105.56 L 763.99 104.62 L 766.58 103.11 L 769.18 102.78 L 771.77 103.94 L 774.37 105.20 L 776.96 108.80 L 779.56 108.65 L 782.15 108.80 L 784.75 108.80 L 787.34 108.80 L 789.94 108.80 L 792.53 108.54 L 795.13 107.86 L 797.72 108.00 L 800.32 107.86 L 802.91 107.86 L 805.51 107.86 L 808.10 107.86 L 810.70 107.86 L 813.29 107.86 L 815.89 107.86 L 818.48 107.86 L 821.08 108.00 L 823.67 108.00 L 826.27 108.00 L 828.86 108.00 L 831.46 108.00 L 834.05 108.00 L 836.65 108.00 L 839.24 108.00 L 841.84 108.00 L 844.43 108.00 L 847.03 108.00 L 849.62 108.00 L 852.22 108.00 L 854.81 108.00 L 857.41 108.00 L 860.00 108.00" fill="none" stroke="#111827" stroke-width="2"/>
    <circle cx="860.00" cy="108.00" r="3" fill="#111827"/>
    <text x="40.00" y="235.00" font-size="9" fill="#111827" text-anchor="middle" transform="rotate(-45 40.00 235.00)">28.08.2025</text><text x="120.44" y="235.00" font-size="9" fill="#111827" text-anchor="middle" transform="rotate(-45 120.44 235.00)">02.09.2025</text><text x="200.89" y="235.00" font-size="9" fill="#111827" text-anchor="middle" transform="rotate(-45 200.89 235.00)">25.09.2025</text><text x="281.33" y="235.00" font-size="9" fill="#111827" text-anchor="middle" transform="rotate(-45 281.33 235.00)">25.10.2025</text><text x="361.77" y="235.00" font-size="9" fill="#111827" text-anchor="middle" transform="rotate(-45 361.77 235.00)">23.11.2025</text><text x="442.22" y="235.00" font-size="9" fill="#111827" text-anchor="middle" transform="rotate(-45 442.22 235.00)">11.12.2025</text><text x="522.66" y="235.00" font-size="9" fill="#111827" text-anchor="middle" transform="rotate(-45 522.66 235.00)">05.01.2026</text><text x="603.10" y="235.00" font-size="9" fill="#111827" text-anchor="middle" transform="rotate(-45 603.10 235.00)">01.02.2026</text><text x="683.54" y="235.00" font-size="9" fill="#111827" text-anchor="middle" transform="rotate(-45 683.54 235.00)">12.05.2026</text><text x="763.99" y="235.00" font-size="9" fill="#111827" text-anchor="middle" transform="rotate(-45 763.99 235.00)">04.06.2026</text><text x="844.43" y="235.00" font-size="9" fill="#111827" text-anchor="middle" transform="rotate(-45 844.43 235.00)">26.08.2026</text>
  </g>
</svg>