<svg xmlns="http://www.w3.org/2000/svg" width="900" height="290" style="font-family: -apple-system, BlinkMacSystemFont, 'Segoe UI', Helvetica, Arial, sans-serif;">
  <rect width="100%" height="100%" fill="#0d1117"/>
  <g>
    <line x1="40" y1="220.00" x2="860" y2="220.00" stroke="#30363d"/><text x="32" y="224.00" font-size="10" fill="#c9d1d9" text-anchor="end">0</text><line x1="40" y1="175.00" x2="860" y2="175.00" stroke="#30363d"/><text x="32" y="179.00" font-size="10" fill="#c9d1d9" text-anchor="end">1.2k</text><line x1="40" y1="130.00" x2="860" y2="130.00" stroke="#30363d"/><text x="32" y="134.00" font-size="10" fill="#c9d1d9" text-anchor="end">2.5k</text><line x1="40" y1="85.00" x2="860" y2="85.00" stroke="#30363d"/><text x="32" y="89.00" font-size="10" fill="#c9d1d9" text-anchor="end">3.8k</text><line x1="40" y1="40.00" x2="860" y2="40.00" stroke="#30363d"/><text x="32" y="44.00" font-size="10" fill="#c9d1d9" text-anchor="end">5k</text>
    <line x1="40.00" y1="40" x2="40.00" y2="220" stroke="#30363d" opacity="0.5"/><line x1="121.26" y1="40" x2="121.26" y2="220" stroke="#30363d" opacity="0.5"/><line x1="202.52" y1="40" x2="202.52" y2="220" stroke="#30363d" opacity="0.5"/><line x1="283.78" y1="40" x2="283.78" y2="220" stroke="#30363d" opacity="0.5"/><line x1="365.05" y1="40" x2="365.05" y2="220" stroke="#30363d" opacity="0.5"/><line x1="446.31" y1="40" x2="446.31" y2="220" stroke="#30363d" opacity="0.5"/><line x1="527.57" y1="40" x2="527.57" y2="220" stroke="#30363d" opacity="0.5"/><line x1="608.83" y1="40" x2="608.83" y2="220" stroke="#30363d" opacity="0.5"/><line x1="690.09" y1="40" x2="690.09" y2="220" stroke="#30363d" opacity="0.5"/><line x1="771.35" y1="40" x2="771.35" y2="220" stroke="#30363d" opacity="0.5"/><line x1="852.61" y1="40" x2="852.61" y2="220" stroke="#30363d" opacity="0.5"/>
    <line x1="40" y1="220" x2="860" y2="220" stroke="#30363d"/>
    <line x1="40" y1="40"   x2="40"   y2="220" stroke="#30363d"/>
    <path d="M 40.00 198.65 L 42.46 198.40 L 44.92 198.40 L 47.39 180.47 L 49.85 178.31 L 52.31 178.31 L 54.77 176.80 L 57.24 175.29 L 59.70 175.29 L 62.16 175.29 L 64.62 175.29 L 67.09 175.29 L 69.55 175.29 L 72.01 175.29 L 74.47 175.29 L 76.94 175.29 L 79.40 175.29 L 81.86 175.29 L 84.32 175.29 L 86.79 175.29 L 89.25 175.29 L 91.71 175.29 L 94.17 175.68 L 96.64 175.65 L 99.10 175.50 L 101.56 175.50 L 104.02 175.50 L 106.49 175.50 L 108.95 175.50 L 111.41 175.50 L 113.87 175.50 L 116.34 175.50 L 118.80 175.50 L 121.26 175.50 L 123.72 175.50 L 126.19 175.50 L 128.65 175.50 L 131.11 175.50 L 133.57 175.50 L 136.04 175.50 L 138.50 175.50 L 140.96 175.50 L 143.42 175.50 L 145.89 175.50 L 148.35 175.50 L 150.81 175.50 L 153.27 175.50 L 155.74 175.50 L 158.20 175.50 L 160.66 175.50 L 163.12 175.50 L 165.59 175.50 L 168.05 175.50 L 170.51 175.50 L 172.97 175.50 L 175.44 175.50 L 177.90 175.50 L 180.36 175.50 L 182.82 175.50 L 185.29 175.50 L 187.75 175.50 L 190.21 175.50 L 192.67 175.50 L 195.14 175.50 L 197.60 175.50 L 200.06 175.50 L 202.52 175.50 L 204.98 175.50 L 207.45 175.50 L 209.91 175.50 L 212.37 175.50 L 214.83 175.50 L 217.30 175.50 L 219.76 175.50 L 222.22 175.50 L 224.68 175.50 L 227.15 175.50 L 229.61 175.50 L 232.07 175.50 L 234.53 175.50 L 237.00 175.50 L 239.46 175.50 L 241.92 175.50 L 244.38 175.50 L 246.85 175.50 L 249.31 175.50 L 251.77 175.50 L 254.23 175.50 L 256.70 175.50 L 259.16 175.50 L 261.62 175.50 L 264.08 175.50 L 266.55 175.50 L 269.01 175.50 L 271.47 175.50 L 273.93 175.50 L 276.40 175.50 L 278.86 175.50 L 281.32 175.50 L 283.78 175.50 L 286.25 175.50 L 288.71 175.50 L 291.17 175.50 L 293.63 175.50 L 296.10 175.50 L 298.56 175.50 L 301.02 175.50 L 303.48 175.50 L 305.95 175.50 L 308.41 175.50 L 310.87 175.50 L 313.33 175.50 L 315.80 175.50 L 318.26 175.50 L 320.72 175.50 L 323.18 175.50 L 325.65 175.50 L 328.11 175.50 L 330.57 175.50 L 333.03 175.50 L 335.50 175.50 L 337.96 175.50 L 340.42 175.50 L 342.88 175.50 L 345.35 175.50 L 347.81 175.50 L 350.27 175.50 L 352.73 175.50 L 355.20 175.50 L 357.66 175.50 L 360.12 175.50 L 362.58 175.50 L 365.05 175.50 L 367.51 175.50 L 369.97 175.50 L 372.43 175.50 L 374.89 175.50 L 377.36 175.50 L 379.82 175.50 L 382.28 175.50 L 384.74 175.50 L 387.21 175.50 L 389.67 175.50 L 392.13 175.58 L 394.59 172.16 L 397.06 164.56 L 399.52 164.56 L 401.98 164.56 L 404.44 164.56 L 406.91 164.56 L 409.37 160.31 L 411.83 160.31 L 414.29 160.31 L 416.76 160.31 L 419.22 160.31 L 421.68 160.31 L 424.14 160.31 L 426.61 160.31 L 429.07 160.31 L 431.53 160.31 L 433.99 160.31 L 436.46 160.31 L 438.92 160.31 L 441.38 160.31 L 443.84 160.31 L 446.31 160.31 L 448.77 160.31 L 451.23 160.31 L 453.69 160.31 L 456.16 160.31 L 458.62 160.31 L 461.08 160.31 L 463.54 160.31 L 466.01 160.31 L 468.47 160.31 L 470.93 160.31 L 473.39 160.31 L 475.86 160.31 L 478.32 160.31 L 480.78 160.31 L 483.24 160.31 L 485.71 160.31 L 488.17 160.31 L 490.63 160.31 L 493.09 160.31 L 495.56 160.31 L 498.02 160.31 L 500.48 160.31 L 502.94 160.31 L 505.41 160.31 L 507.87 160.31 L 510.33 160.31 L 512.79 160.31 L 515.26 160.31 L 517.72 160.31 L 520.18 160.31 L 522.64 160.31 L 525.11 160.31 L 527.57 160.31 L 530.03 160.31 L 532.49 160.31 L 534.95 160.31 L 537.42 160.31 L 539.88 160.31 L 542.34 160.31 L 544.80 160.31 L 547.27 160.31 L 549.73 160.31 L 552.19 160.31 L 554.65 160.31 L 557.12 160.31 L 559.58 160.31 L 562.04 160.31 L 564.50 160.31 L 566.97 160.31 L 569.43 160.31 L 571.89 160.31 L 574.35 160.31 L 576.82 160.31 L 579.28 160.46 L 581.74 160.31 L 584.20 160.31 L 586.67 160.31 L 589.13 160.31 L 591.59 160.31 L 594.05 160.31 L 596.52 160.31 L 598.98 160.31 L 601.44 160.31 L 603.90 160.31 L 606.37 160.31 L 608.83 160.31 L 611.29 160.31 L 613.75 160.31 L 616.22 160.31 L 618.68 160.31 L 621.14 160.31 L 623.60 160.31 L 626.07 160.31 L 628.53 160.31 L 630.99 160.31 L 633.45 160.31 L 635.92 160.31 L 638.38 160.31 L 640.84 160.31 L 643.30 160.31 L 645.77 160.31 L 648.23 160.31 L 650.69 160.31 L 653.15 159.99 L 655.62 151.82 L 658.08 151.82 L 660.54 150.88 L 663.00 143.90 L 665.47 141.05 L 667.93 139.22 L 670.39 138.42 L 672.85 134.10 L 675.32 129.42 L 677.78 126.72 L 680.24 123.70 L 682.70 119.56 L 685.17 117.29 L 687.63 114.45 L 690.09 112.04 L 692.55 111.82 L 695.02 111.60 L 697.48 111.75 L 699.94 111.75 L 702.40 111.75 L 704.86 111.75 L 707.33 111.75 L 709.79 111.75 L 712.25 111.75 L 714.71 111.75 L 717.18 111.75 L 719.64 108.29 L 722.10 106.31 L 724.56 105.56 L 727.03 104.62 L 729.49 103.11 L 731.95 102.78 L 734.41 103.94 L 736.88 105.20 L 739.34 108.80 L 741.80 108.65 L 744.26 108.80 L 746.73 108.80 L 749.19 108.80 L 751.65 108.80 L 754.11 108.54 L 756.58 107.86 L 759.04 108.00 L 761.50 107.86 L 763.96 107.86 L 766.43 107.86 L 768.89 107.86 L 771.35 107.86 L 773.81 107.86 L 776.28 107.86 L 778.74 107.86 L 781.20 108.00 L 783.66 108.00 L 786.13 108.00 L 788.59 108.00 L 791.05 108.00 L 793.51 108.00 L 795.98 108.00 L 798.44 108.00 L 800.90 108.00 L 803.36 108.00 L 805.83 108.00 L 808.29 108.00 L 810.75 108.00 L 813.21 108.00 L 815.68 108.00 L 818.14 108.00 L 820.60 108.00 L 823.06 107.00 L 825.53 107.00 L 827.99 100.70 L 830.45 99.36 L 832.91 97.78 L 835.38 95.30 L 837.84 95.30 L 840.30 94.76 L 842.76 94.76 L 845.23 94.76 L 847.69 78.02 L 850.15 78.02 L 852.61 78.02 L 855.08 76.18 L 857.54 76.18 L 860.00 76.18" fill="none" stroke="#3fb950" stroke-width="2"/>
    <circle cx="860.00" cy="76.18" r="3" fill="#3fb950"/>
    <text x="40.00" y="235.00" font-size="9" fill="#c9d1d9" text-anchor="middle" transform="rotate(-45 40.00 235.00)">28.08.2025</text><text x="121.26" y="235.00" font-size="9" fill="#c9d1d9" text-anchor="middle" transform="rotate(-45 121.26 235.00)">04.09.2025</text><text x="202.52" y="235.00" font-size="9" fill="#c9d1d9" text-anchor="middle" transform="rotate(-45 202.52 235.00)">29.09.2025</text><text x="283.78" y="235.00" font-size="9" fill="#c9d1d9" text-anchor="middle" transform="rotate(-45 283.78 235.00)">29.10.2025</text><text x="365.05" y="235.00" font-size="9" fill="#c9d1d9" text-anchor="middle" transform="rotate(-45 365.05 235.00)">28.11.2025</text><text x="446.31" y="235.00" font-size="9" fill="#c9d1d9" text-anchor="middle" transform="rotate(-45 446.31 235.00)">17.12.2025</text><text x="527.57" y="235.00" font-size="9" fill="#c9d1d9" text-anchor="middle" transform="rotate(-45 527.57 235.00)">15.01.2026</text><text x="608.83" y="235.00" font-size="9" fill="#c9d1d9" text-anchor="middle" transform="rotate(-45 608.83 235.00)">13.02.2026</text><text x="690.09" y="235.00" font-size="9" fill="#c9d1d9" text-anchor="middle" transform="rotate(-45 690.09 235.00)">13.05.2026</text><text x="771.35" y="235.00" font-size="9" fill="#c9d1d9" text-anchor="middle" transform="rotate(-45 771.35 235.00)">07.08.2026</text><text x="852.61" y="235.00" font-size="9" fill="#c9d1d9" text-anchor="middle" transform="rotate(-45 852.61 235.00)">20.09.2026</text>
  </g>
</svg>