<svg xmlns="http://www.w3.org/2000/svg" width="900" height="290" style="font-family: -apple-system, BlinkMacSystemFont, 'Segoe UI', Helvetica, Arial, sans-serif;">
  <rect width="100%" height="100%" fill="#0d1117"/>
  <g>
    <line x1="40" y1="220.00" x2="860" y2="220.00" stroke="#30363d"/><text x="32" y="224.00" font-size="10" fill="#c9d1d9" text-anchor="end">0</text><line x1="40" y1="175.00" x2="860" y2="175.00" stroke="#30363d"/><text x="32" y="179.00" font-size="10" fill="#c9d1d9" text-anchor="end">500</text><line x1="40" y1="130.00" x2="860" y2="130.00" stroke="#30363d"/><text x="32" y="134.00" font-size="10" fill="#c9d1d9" text-anchor="end">1k</text><line x1="40" y1="85.00" x2="860" y2="85.00" stroke="#30363d"/><text x="32" y="89.00" font-size="10" fill="#c9d1d9" text-anchor="end">1.5k</text><line x1="40" y1="40.00" x2="860" y2="40.00" stroke="#30363d"/><text x="32" y="44.00" font-size="10" fill="#c9d1d9" text-anchor="end">2k</text>
    <line x1="40.00" y1="40" x2="40.00" y2="220" stroke="#30363d" opacity="0.5"/><line x1="122.00" y1="40" x2="122.00" y2="220" stroke="#30363d" opacity="0.5"/><line x1="204.00" y1="40" x2="204.00" y2="220" stroke="#30363d" opacity="0.5"/><line x1="286.00" y1="40" x2="286.00" y2="220" stroke="#30363d" opacity="0.5"/><line x1="368.00" y1="40" x2="368.00" y2="220" stroke="#30363d" opacity="0.5"/><line x1="450.00" y1="40" x2="450.00" y2="220" stroke="#30363d" opacity="0.5"/><line x1="532.00" y1="40" x2="532.00" y2="220" stroke="#30363d" opacity="0.5"/><line x1="614.00" y1="40" x2="614.00" y2="220" stroke="#30363d" opacity="0.5"/><line x1="696.00" y1="40" x2="696.00" y2="220" stroke="#30363d" opacity="0.5"/><line x1="778.00" y1="40" x2="778.00" y2="220" stroke="#30363d" opacity="0.5"/><line x1="860.00" y1="40" x2="860.00" y2="220" stroke="#30363d" opacity="0.5"/>
    <line x1="40" y1="220" x2="860" y2="220" stroke="#30363d"/>
    <line x1="40" y1="40"   x2="40"   y2="220" stroke="#30363d"/>
    <path d="M 40.00 166.63 L 43.42 166.00 L 46.83 166.00 L 50.25 121.18 L 53.67 115.78 L 57.08 115.78 L 60.50 112.00 L 63.92 108.22 L 67.33 108.22 L 70.75 108.22 L 74.17 108.22 L 77.58 108.22 L 81.00 108.22 L 84.42 108.22 L 87.83 108.22 L 91.25 108.22 L 94.67 108.22 L 98.08 108.22 L 101.50 108.22 L 104.92 108.22 L 108.33 108.22 L 111.75 108.22 L 115.17 109.21 L 118.58 109.12 L 122.00 108.76 L 125.42 108.76 L 128.83 108.76 L 132.25 108.76 L 135.67 108.76 L 139.08 108.76 L 142.50 108.76 L 145.92 108.76 L 149.33 108.76 L 152.75 108.76 L 156.17 108.76 L 159.58 108.76 L 163.00 108.76 L 166.42 108.76 L 169.83 108.76 L 173.25 108.76 L 176.67 108.76 L 180.08 108.76 L 183.50 108.76 L 186.92 108.76 L 190.33 108.76 L 193.75 108.76 L 197.17 108.76 L 200.58 108.76 L 204.00 108.76 L 207.42 108.76 L 210.83 108.76 L 214.25 108.76 L 217.67 108.76 L 221.08 108.76 L 224.50 108.76 L 227.92 108.76 L 231.33 108.76 L 234.75 108.76 L 238.17 108.76 L 241.58 108.76 L 245.00 108.76 L 248.42 108.76 L 251.83 108.76 L 255.25 108.76 L 258.67 108.76 L 262.08 108.76 L 265.50 108.76 L 268.92 108.76 L 272.33 108.76 L 275.75 108.76 L 279.17 108.76 L 282.58 108.76 L 286.00 108.76 L 289.42 108.76 L 292.83 108.76 L 296.25 108.76 L 299.67 108.76 L 303.08 108.76 L 306.50 108.76 L 309.92 108.76 L 313.33 108.76 L 316.75 108.76 L 320.17 108.76 L 323.58 108.76 L 327.00 108.76 L 330.42 108.76 L 333.83 108.76 L 337.25 108.76 L 340.67 108.76 L 344.08 108.76 L 347.50 108.76 L 350.92 108.76 L 354.33 108.76 L 357.75 108.76 L 361.17 108.76 L 364.58 108.76 L 368.00 108.76 L 371.42 108.76 L 374.83 108.76 L 378.25 108.76 L 381.67 108.76 L 385.08 108.76 L 388.50 108.76 L 391.92 108.76 L 395.33 108.76 L 398.75 108.76 L 402.17 108.76 L 405.58 108.76 L 409.00 108.76 L 412.42 108.76 L 415.83 108.76 L 419.25 108.76 L 422.67 108.76 L 426.08 108.76 L 429.50 108.76 L 432.92 108.76 L 436.33 108.76 L 439.75 108.76 L 443.17 108.76 L 446.58 108.76 L 450.00 108.76 L 453.42 108.76 L 456.83 108.76 L 460.25 108.76 L 463.67 108.76 L 467.08 108.76 L 470.50 108.76 L 473.92 108.76 L 477.33 108.76 L 480.75 108.76 L 484.17 108.76 L 487.58 108.76 L 491.00 108.76 L 494.42 108.76 L 497.83 108.76 L 501.25 108.76 L 504.67 108.76 L 508.08 108.76 L 511.50 108.76 L 514.92 108.76 L 518.33 108.76 L 521.75 108.76 L 525.17 108.76 L 528.58 108.94 L 532.00 100.39 L 535.42 81.40 L 538.83 81.40 L 542.25 81.40 L 545.67 81.40 L 549.08 81.40 L 552.50 70.78 L 555.92 70.78 L 559.33 70.78 L 562.75 70.78 L 566.17 70.78 L 569.58 70.78 L 573.00 70.78 L 576.42 70.78 L 579.83 70.78 L 583.25 70.78 L 586.67 70.78 L 590.08 70.78 L 593.50 70.78 L 596.92 70.78 L 600.33 70.78 L 603.75 70.78 L 607.17 70.78 L 610.58 70.78 L 614.00 70.78 L 617.42 70.78 L 620.83 70.78 L 624.25 70.78 L 627.67 70.78 L 631.08 70.78 L 634.50 70.78 L 637.92 70.78 L 641.33 70.78 L 644.75 70.78 L 648.17 70.78 L 651.58 70.78 L 655.00 70.78 L 658.42 70.78 L 661.83 70.78 L 665.25 70.78 L 668.67 70.78 L 672.08 70.78 L 675.50 70.78 L 678.92 70.78 L 682.33 70.78 L 685.75 70.78 L 689.17 70.78 L 692.58 70.78 L 696.00 70.78 L 699.42 70.78 L 702.83 70.78 L 706.25 70.78 L 709.67 70.78 L 713.08 70.78 L 716.50 70.78 L 719.92 70.78 L 723.33 70.78 L 726.75 70.78 L 730.17 70.78 L 733.58 70.78 L 737.00 70.78 L 740.42 70.78 L 743.83 70.78 L 747.25 70.78 L 750.67 70.78 L 754.08 70.78 L 757.50 70.78 L 760.92 70.78 L 764.33 70.78 L 767.75 70.78 L 771.17 70.78 L 774.58 70.78 L 778.00 70.78 L 781.42 70.78 L 784.83 70.78 L 788.25 70.78 L 791.67 70.78 L 795.08 70.78 L 798.50 70.78 L 801.92 70.78 L 805.33 70.78 L 808.75 70.78 L 812.17 70.78 L 815.58 70.78 L 819.00 70.78 L 822.42 70.78 L 825.83 70.78 L 829.25 70.78 L 832.67 70.78 L 836.08 70.78 L 839.50 70.78 L 842.92 70.78 L 846.33 70.78 L 849.75 70.78 L 853.17 70.78 L 856.58 70.78 L 860.00 70.78" fill="none" stroke="#3fb950" stroke-width="2"/>
    <circle cx="860.00" cy="70.78" r="3" fill="#3fb950"/>
    <text x="40.00" y="235.00" font-size="9" fill="#c9d1d9" text-anchor="middle" transform="rotate(-45 40.00 235.00)">28.08.2025</text><text x="122.00" y="235.00" font-size="9" fill="#c9d1d9" text-anchor="middle" transform="rotate(-45 122.00 235.00)">28.08.2025</text><text x="204.00" y="235.00" font-size="9" fill="#c9d1d9" text-anchor="middle" transform="rotate(-45 204.00 235.00)">15.09.2025</text><text x="286.00" y="235.00" font-size="9" fill="#c9d1d9" text-anchor="middle" transform="rotate(-45 286.00 235.00)">05.10.2025</text><text x="368.00" y="235.00" font-size="9" fill="#c9d1d9" text-anchor="middle" transform="rotate(-45 368.00 235.00)">27.10.2025</text><text x="450.00" y="235.00" font-size="9" fill="#c9d1d9" text-anchor="middle" transform="rotate(-45 450.00 235.00)">19.11.2025</text><text x="532.00" y="235.00" font-size="9" fill="#c9d1d9" text-anchor="middle" transform="rotate(-45 532.00 235.00)">04.12.2025</text><text x="614.00" y="235.00" font-size="9" fill="#c9d1d9" text-anchor="middle" transform="rotate(-45 614.00 235.00)">19.12.2025</text><text x="696.00" y="235.00" font-size="9" fill="#c9d1d9" text-anchor="middle" transform="rotate(-45 696.00 235.00)">11.01.2026</text><text x="778.00" y="235.00" font-size="9" fill="#c9d1d9" text-anchor="middle" transform="rotate(-45 778.00 235.00)">02.02.2026</text><text x="860.00" y="235.00" font-size="9" fill="#c9d1d9" text-anchor="middle" transform="rotate(-45 860.00 235.00)">25.02.2026</text>
  </g>
</svg>