<svg xmlns="http://www.w3.org/2000/svg" width="900" height="290" style="font-family: -apple-system, BlinkMacSystemFont, 'Segoe UI', Helvetica, Arial, sans-serif;">
  <rect width="100%" height="100%" fill="#0d1117"/>
  <g>
    <line x1="40" y1="220.00" x2="860" y2="220.00" stroke="#30363d"/><text x="32" y="224.00" font-size="10" fill="#c9d1d9" text-anchor="end">0</text><line x1="40" y1="175.00" x2="860" y2="175.00" stroke="#30363d"/><text x="32" y="179.00" font-size="10" fill="#c9d1d9" text-anchor="end">500</text><line x1="40" y1="130.00" x2="860" y2="130.00" stroke="#30363d"/><text x="32" y="134.00" font-size="10" fill="#c9d1d9" text-anchor="end">1k</text><line x1="40" y1="85.00" x2="860" y2="85.00" stroke="#30363d"/><text x="32" y="89.00" font-size="10" fill="#c9d1d9" text-anchor="end">1.5k</text><line x1="40" y1="40.00" x2="860" y2="40.00" stroke="#30363d"/><text x="32" y="44.00" font-size="10" fill="#c9d1d9" text-anchor="end">2k</text>
    <line x1="40.00" y1="40" x2="40.00" y2="220" stroke="#30363d" opacity="0.5"/><line x1="119.58" y1="40" x2="119.58" y2="220" stroke="#30363d" opacity="0.5"/><line x1="199.16" y1="40" x2="199.16" y2="220" stroke="#30363d" opacity="0.5"/><line x1="278.73" y1="40" x2="278.73" y2="220" stroke="#30363d" opacity="0.5"/><line x1="358.31" y1="40" x2="358.31" y2="220" stroke="#30363d" opacity="0.5"/><line x1="437.89" y1="40" x2="437.89" y2="220" stroke="#30363d" opacity="0.5"/><line x1="517.47" y1="40" x2="517.47" y2="220" stroke="#30363d" opacity="0.5"/><line x1="597.05" y1="40" x2="597.05" y2="220" stroke="#30363d" opacity="0.5"/><line x1="676.62" y1="40" x2="676.62" y2="220" stroke="#30363d" opacity="0.5"/><line x1="756.20" y1="40" x2="756.20" y2="220" stroke="#30363d" opacity="0.5"/><line x1="835.78" y1="40" x2="835.78" y2="220" stroke="#30363d" opacity="0.5"/>
    <line x1="40" y1="220" x2="860" y2="220" stroke="#30363d"/>
    <line x1="40" y1="40"   x2="40"   y2="220" stroke="#30363d"/>
    <path d="M 40.00 166.63 L 43.46 166.00 L 46.92 166.00 L 50.38 121.18 L 53.84 115.78 L 57.30 115.78 L 60.76 112.00 L 64.22 108.22 L 67.68 108.22 L 71.14 108.22 L 74.60 108.22 L 78.06 108.22 L 81.52 108.22 L 84.98 108.22 L 88.44 108.22 L 91.90 108.22 L 95.36 108.22 L 98.82 108.22 L 102.28 108.22 L 105.74 108.22 L 109.20 108.22 L 112.66 108.22 L 116.12 109.21 L 119.58 109.12 L 123.04 108.76 L 126.50 108.76 L 129.96 108.76 L 133.42 108.76 L 136.88 108.76 L 140.34 108.76 L 143.80 108.76 L 147.26 108.76 L 150.72 108.76 L 154.18 108.76 L 157.64 108.76 L 161.10 108.76 L 164.56 108.76 L 168.02 108.76 L 171.48 108.76 L 174.94 108.76 L 178.40 108.76 L 181.86 108.76 L 185.32 108.76 L 188.78 108.76 L 192.24 108.76 L 195.70 108.76 L 199.16 108.76 L 202.62 108.76 L 206.08 108.76 L 209.54 108.76 L 213.00 108.76 L 216.46 108.76 L 219.92 108.76 L 223.38 108.76 L 226.84 108.76 L 230.30 108.76 L 233.76 108.76 L 237.22 108.76 L 240.68 108.76 L 244.14 108.76 L 247.59 108.76 L 251.05 108.76 L 254.51 108.76 L 257.97 108.76 L 261.43 108.76 L 264.89 108.76 L 268.35 108.76 L 271.81 108.76 L 275.27 108.76 L 278.73 108.76 L 282.19 108.76 L 285.65 108.76 L 289.11 108.76 L 292.57 108.76 L 296.03 108.76 L 299.49 108.76 L 302.95 108.76 L 306.41 108.76 L 309.87 108.76 L 313.33 108.76 L 316.79 108.76 L 320.25 108.76 L 323.71 108.76 L 327.17 108.76 L 330.63 108.76 L 334.09 108.76 L 337.55 108.76 L 341.01 108.76 L 344.47 108.76 L 347.93 108.76 L 351.39 108.76 L 354.85 108.76 L 358.31 108.76 L 361.77 108.76 L 365.23 108.76 L 368.69 108.76 L 372.15 108.76 L 375.61 108.76 L 379.07 108.76 L 382.53 108.76 L 385.99 108.76 L 389.45 108.76 L 392.91 108.76 L 396.37 108.76 L 399.83 108.76 L 403.29 108.76 L 406.75 108.76 L 410.21 108.76 L 413.67 108.76 L 417.13 108.76 L 420.59 108.76 L 424.05 108.76 L 427.51 108.76 L 430.97 108.76 L 434.43 108.76 L 437.89 108.76 L 441.35 108.76 L 444.81 108.76 L 448.27 108.76 L 451.73 108.76 L 455.19 108.76 L 458.65 108.76 L 462.11 108.76 L 465.57 108.76 L 469.03 108.76 L 472.49 108.76 L 475.95 108.76 L 479.41 108.76 L 482.87 108.76 L 486.33 108.76 L 489.79 108.76 L 493.25 108.76 L 496.71 108.76 L 500.17 108.76 L 503.63 108.76 L 507.09 108.76 L 510.55 108.76 L 514.01 108.76 L 517.47 108.76 L 520.93 108.76 L 524.39 108.76 L 527.85 108.76 L 531.31 108.76 L 534.77 108.94 L 538.23 100.39 L 541.69 81.40 L 545.15 81.40 L 548.61 81.40 L 552.07 81.40 L 555.53 81.40 L 558.99 70.78 L 562.45 70.78 L 565.91 70.78 L 569.37 70.78 L 572.83 70.78 L 576.29 70.78 L 579.75 70.78 L 583.21 70.78 L 586.67 70.78 L 590.13 70.78 L 593.59 70.78 L 597.05 70.78 L 600.51 70.78 L 603.97 70.78 L 607.43 70.78 L 610.89 70.78 L 614.35 70.78 L 617.81 70.78 L 621.27 70.78 L 624.73 70.78 L 628.19 70.78 L 631.65 70.78 L 635.11 70.78 L 638.57 70.78 L 642.03 70.78 L 645.49 70.78 L 648.95 70.78 L 652.41 70.78 L 655.86 70.78 L 659.32 70.78 L 662.78 70.78 L 666.24 70.78 L 669.70 70.78 L 673.16 70.78 L 676.62 70.78 L 680.08 70.78 L 683.54 70.78 L 687.00 70.78 L 690.46 70.78 L 693.92 70.78 L 697.38 70.78 L 700.84 70.78 L 704.30 70.78 L 707.76 70.78 L 711.22 70.78 L 714.68 70.78 L 718.14 70.78 L 721.60 70.78 L 725.06 70.78 L 728.52 70.78 L 731.98 70.78 L 735.44 70.78 L 738.90 70.78 L 742.36 70.78 L 745.82 70.78 L 749.28 70.78 L 752.74 70.78 L 756.20 70.78 L 759.66 70.78 L 763.12 70.78 L 766.58 70.78 L 770.04 70.78 L 773.50 70.78 L 776.96 70.78 L 780.42 70.78 L 783.88 70.78 L 787.34 70.78 L 790.80 70.78 L 794.26 70.78 L 797.72 70.78 L 801.18 70.78 L 804.64 70.78 L 808.10 70.78 L 811.56 70.78 L 815.02 70.78 L 818.48 70.78 L 821.94 70.78 L 825.40 70.78 L 828.86 70.78 L 832.32 70.78 L 835.78 70.78 L 839.24 70.78 L 842.70 70.78 L 846.16 70.78 L 849.62 70.78 L 853.08 70.78 L 856.54 70.78 L 860.00 70.78" fill="none" stroke="#3fb950" stroke-width="2"/>
    <circle cx="860.00" cy="70.78" r="3" fill="#3fb950"/>
    <text x="40.00" y="235.00" font-size="9" fill="#c9d1d9" text-anchor="middle" transform="rotate(-45 40.00 235.00)">28.08.2025</text><text x="119.58" y="235.00" font-size="9" fill="#c9d1d9" text-anchor="middle" transform="rotate(-45 119.58 235.00)">28.08.2025</text><text x="199.16" y="235.00" font-size="9" fill="#c9d1d9" text-anchor="middle" transform="rotate(-45 199.16 235.00)">15.09.2025</text><text x="278.73" y="235.00" font-size="9" fill="#c9d1d9" text-anchor="middle" transform="rotate(-45 278.73 235.00)">02.10.2025</text><text x="358.31" y="235.00" font-size="9" fill="#c9d1d9" text-anchor="middle" transform="rotate(-45 358.31 235.00)">24.10.2025</text><text x="437.89" y="235.00" font-size="9" fill="#c9d1d9" text-anchor="middle" transform="rotate(-45 437.89 235.00)">14.11.2025</text><text x="517.47" y="235.00" font-size="9" fill="#c9d1d9" text-anchor="middle" transform="rotate(-45 517.47 235.00)">30.11.2025</text><text x="597.05" y="235.00" font-size="9" fill="#c9d1d9" text-anchor="middle" transform="rotate(-45 597.05 235.00)">13.12.2025</text><text x="676.62" y="235.00" font-size="9" fill="#c9d1d9" text-anchor="middle" transform="rotate(-45 676.62 235.00)">03.01.2026</text><text x="756.20" y="235.00" font-size="9" fill="#c9d1d9" text-anchor="middle" transform="rotate(-45 756.20 235.00)">24.01.2026</text><text x="835.78" y="235.00" font-size="9" fill="#c9d1d9" text-anchor="middle" transform="rotate(-45 835.78 235.00)">15.02.2026</text>
  </g>
</svg>