<svg xmlns="http://www.w3.org/2000/svg" width="900" height="290" style="font-family: -apple-system, BlinkMacSystemFont, 'Segoe UI', Helvetica, Arial, sans-serif;">
  <rect width="100%" height="100%" fill="white"/>
  <g>
    <line x1="40" y1="220.00" x2="860" y2="220.00" stroke="#e5e7eb"/><text x="32" y="224.00" font-size="10" fill="#111827" text-anchor="end">0</text><line x1="40" y1="175.00" x2="860" y2="175.00" stroke="#e5e7eb"/><text x="32" y="179.00" font-size="10" fill="#111827" text-anchor="end">500</text><line x1="40" y1="130.00" x2="860" y2="130.00" stroke="#e5e7eb"/><text x="32" y="134.00" font-size="10" fill="#111827" text-anchor="end">1k</text><line x1="40" y1="85.00" x2="860" y2="85.00" stroke="#e5e7eb"/><text x="32" y="89.00" font-size="10" fill="#111827" text-anchor="end">1.5k</text><line x1="40" y1="40.00" x2="860" y2="40.00" stroke="#e5e7eb"/><text x="32" y="44.00" font-size="10" fill="#111827" text-anchor="end">2k</text>
    <line x1="40.00" y1="40" x2="40.00" y2="220" stroke="#e5e7eb" opacity="0.5"/><line x1="120.99" y1="40" x2="120.99" y2="220" stroke="#e5e7eb" opacity="0.5"/><line x1="201.98" y1="40" x2="201.98" y2="220" stroke="#e5e7eb" opacity="0.5"/><line x1="282.96" y1="40" x2="282.96" y2="220" stroke="#e5e7eb" opacity="0.5"/><line x1="363.95" y1="40" x2="363.95" y2="220" stroke="#e5e7eb" opacity="0.5"/><line x1="444.94" y1="40" x2="444.94" y2="220" stroke="#e5e7eb" opacity="0.5"/><line x1="525.93" y1="40" x2="525.93" y2="220" stroke="#e5e7eb" opacity="0.5"/><line x1="606.91" y1="40" x2="606.91" y2="220" stroke="#e5e7eb" opacity="0.5"/><line x1="687.90" y1="40" x2="687.90" y2="220" stroke="#e5e7eb" opacity="0.5"/><line x1="768.89" y1="40" x2="768.89" y2="220" stroke="#e5e7eb" opacity="0.5"/><line x1="849.88" y1="40" x2="849.88" y2="220" stroke="#e5e7eb" opacity="0.5"/>
    <line x1="40" y1="220" x2="860" y2="220" stroke="#9ca3af"/>
    <line x1="40" y1="40"   x2="40"   y2="220" stroke="#9ca3af"/>
    <path d="M 40.00 166.63 L 43.37 166.00 L 46.75 166.00 L 50.12 121.18 L 53.50 115.78 L 56.87 115.78 L 60.25 112.00 L 63.62 108.22 L 67.00 108.22 L 70.37 108.22 L 73.74 108.22 L 77.12 108.22 L 80.49 108.22 L 83.87 108.22 L 87.24 108.22 L 90.62 108.22 L 93.99 108.22 L 97.37 108.22 L 100.74 108.22 L 104.12 108.22 L 107.49 108.22 L 110.86 108.22 L 114.24 109.21 L 117.61 109.12 L 120.99 108.76 L 124.36 108.76 L 127.74 108.76 L 131.11 108.76 L 134.49 108.76 L 137.86 108.76 L 141.23 108.76 L 144.61 108.76 L 147.98 108.76 L 151.36 108.76 L 154.73 108.76 L 158.11 108.76 L 161.48 108.76 L 164.86 108.76 L 168.23 108.76 L 171.60 108.76 L 174.98 108.76 L 178.35 108.76 L 181.73 108.76 L 185.10 108.76 L 188.48 108.76 L 191.85 108.76 L 195.23 108.76 L 198.60 108.76 L 201.98 108.76 L 205.35 108.76 L 208.72 108.76 L 212.10 108.76 L 215.47 108.76 L 218.85 108.76 L 222.22 108.76 L 225.60 108.76 L 228.97 108.76 L 232.35 108.76 L 235.72 108.76 L 239.09 108.76 L 242.47 108.76 L 245.84 108.76 L 249.22 108.76 L 252.59 108.76 L 255.97 108.76 L 259.34 108.76 L 262.72 108.76 L 266.09 108.76 L 269.47 108.76 L 272.84 108.76 L 276.21 108.76 L 279.59 108.76 L 282.96 108.76 L 286.34 108.76 L 289.71 108.76 L 293.09 108.76 L 296.46 108.76 L 299.84 108.76 L 303.21 108.76 L 306.58 108.76 L 309.96 108.76 L 313.33 108.76 L 316.71 108.76 L 320.08 108.76 L 323.46 108.76 L 326.83 108.76 L 330.21 108.76 L 333.58 108.76 L 336.95 108.76 L 340.33 108.76 L 343.70 108.76 L 347.08 108.76 L 350.45 108.76 L 353.83 108.76 L 357.20 108.76 L 360.58 108.76 L 363.95 108.76 L 367.33 108.76 L 370.70 108.76 L 374.07 108.76 L 377.45 108.76 L 380.82 108.76 L 384.20 108.76 L 387.57 108.76 L 390.95 108.76 L 394.32 108.76 L 397.70 108.76 L 401.07 108.76 L 404.44 108.76 L 407.82 108.76 L 411.19 108.76 L 414.57 108.76 L 417.94 108.76 L 421.32 108.76 L 424.69 108.76 L 428.07 108.76 L 431.44 108.76 L 434.81 108.76 L 438.19 108.76 L 441.56 108.76 L 444.94 108.76 L 448.31 108.76 L 451.69 108.76 L 455.06 108.76 L 458.44 108.76 L 461.81 108.76 L 465.19 108.76 L 468.56 108.76 L 471.93 108.76 L 475.31 108.76 L 478.68 108.76 L 482.06 108.76 L 485.43 108.76 L 488.81 108.76 L 492.18 108.76 L 495.56 108.76 L 498.93 108.76 L 502.30 108.76 L 505.68 108.76 L 509.05 108.76 L 512.43 108.76 L 515.80 108.76 L 519.18 108.76 L 522.55 108.94 L 525.93 100.39 L 529.30 81.40 L 532.67 81.40 L 536.05 81.40 L 539.42 81.40 L 542.80 81.40 L 546.17 70.78 L 549.55 70.78 L 552.92 70.78 L 556.30 70.78 L 559.67 70.78 L 563.05 70.78 L 566.42 70.78 L 569.79 70.78 L 573.17 70.78 L 576.54 70.78 L 579.92 70.78 L 583.29 70.78 L 586.67 70.78 L 590.04 70.78 L 593.42 70.78 L 596.79 70.78 L 600.16 70.78 L 603.54 70.78 L 606.91 70.78 L 610.29 70.78 L 613.66 70.78 L 617.04 70.78 L 620.41 70.78 L 623.79 70.78 L 627.16 70.78 L 630.53 70.78 L 633.91 70.78 L 637.28 70.78 L 640.66 70.78 L 644.03 70.78 L 647.41 70.78 L 650.78 70.78 L 654.16 70.78 L 657.53 70.78 L 660.91 70.78 L 664.28 70.78 L 667.65 70.78 L 671.03 70.78 L 674.40 70.78 L 677.78 70.78 L 681.15 70.78 L 684.53 70.78 L 687.90 70.78 L 691.28 70.78 L 694.65 70.78 L 698.02 70.78 L 701.40 70.78 L 704.77 70.78 L 708.15 70.78 L 711.52 70.78 L 714.90 70.78 L 718.27 70.78 L 721.65 70.78 L 725.02 70.78 L 728.40 70.78 L 731.77 70.78 L 735.14 70.78 L 738.52 70.78 L 741.89 70.78 L 745.27 70.78 L 748.64 70.78 L 752.02 70.78 L 755.39 70.78 L 758.77 70.78 L 762.14 70.78 L 765.51 70.78 L 768.89 70.78 L 772.26 70.78 L 775.64 70.78 L 779.01 70.78 L 782.39 70.78 L 785.76 70.78 L 789.14 70.78 L 792.51 70.78 L 795.88 70.78 L 799.26 70.78 L 802.63 70.78 L 806.01 70.78 L 809.38 70.78 L 812.76 70.78 L 816.13 70.78 L 819.51 70.78 L 822.88 70.78 L 826.26 70.78 L 829.63 70.78 L 833.00 70.78 L 836.38 70.78 L 839.75 70.78 L 843.13 70.78 L 846.50 70.78 L 849.88 70.78 L 853.25 70.78 L 856.63 70.78 L 860.00 70.78" fill="none" stroke="#111827" stroke-width="2"/>
    <circle cx="860.00" cy="70.78" r="3" fill="#111827"/>
    <text x="40.00" y="235.00" font-size="9" fill="#111827" text-anchor="middle" transform="rotate(-45 40.00 235.00)">28.08.2025</text><text x="120.99" y="235.00" font-size="9" fill="#111827" text-anchor="middle" transform="rotate(-45 120.99 235.00)">28.08.2025</text><text x="201.98" y="235.00" font-size="9" fill="#111827" text-anchor="middle" transform="rotate(-45 201.98 235.00)">15.09.2025</text><text x="282.96" y="235.00" font-size="9" fill="#111827" text-anchor="middle" transform="rotate(-45 282.96 235.00)">05.10.2025</text><text x="363.95" y="235.00" font-size="9" fill="#111827" text-anchor="middle" transform="rotate(-45 363.95 235.00)">27.10.2025</text><text x="444.94" y="235.00" font-size="9" fill="#111827" text-anchor="middle" transform="rotate(-45 444.94 235.00)">19.11.2025</text><text x="525.93" y="235.00" font-size="9" fill="#111827" text-anchor="middle" transform="rotate(-45 525.93 235.00)">04.12.2025</text><text x="606.91" y="235.00" font-size="9" fill="#111827" text-anchor="middle" transform="rotate(-45 606.91 235.00)">19.12.2025</text><text x="687.90" y="235.00" font-size="9" fill="#111827" text-anchor="middle" transform="rotate(-45 687.90 235.00)">11.01.2026</text><text x="768.89" y="235.00" font-size="9" fill="#111827" text-anchor="middle" transform="rotate(-45 768.89 235.00)">02.02.2026</text><text x="849.88" y="235.00" font-size="9" fill="#111827" text-anchor="middle" transform="rotate(-45 849.88 235.00)">25.02.2026</text>
  </g>
</svg>