<svg xmlns="http://www.w3.org/2000/svg" width="900" height="290" style="font-family: -apple-system, BlinkMacSystemFont, 'Segoe UI', Helvetica, Arial, sans-serif;">
  <rect width="100%" height="100%" fill="#0d1117"/>
  <g>
    <line x1="40" y1="220.00" x2="860" y2="220.00" stroke="#30363d"/><text x="32" y="224.00" font-size="10" fill="#c9d1d9" text-anchor="end">0</text><line x1="40" y1="175.00" x2="860" y2="175.00" stroke="#30363d"/><text x="32" y="179.00" font-size="10" fill="#c9d1d9" text-anchor="end">500</text><line x1="40" y1="130.00" x2="860" y2="130.00" stroke="#30363d"/><text x="32" y="134.00" font-size="10" fill="#c9d1d9" text-anchor="end">1k</text><line x1="40" y1="85.00" x2="860" y2="85.00" stroke="#30363d"/><text x="32" y="89.00" font-size="10" fill="#c9d1d9" text-anchor="end">1.5k</text><line x1="40" y1="40.00" x2="860" y2="40.00" stroke="#30363d"/><text x="32" y="44.00" font-size="10" fill="#c9d1d9" text-anchor="end">2k</text>
    <line x1="40.00" y1="40" x2="40.00" y2="220" stroke="#30363d" opacity="0.5"/><line x1="121.32" y1="40" x2="121.32" y2="220" stroke="#30363d" opacity="0.5"/><line x1="202.64" y1="40" x2="202.64" y2="220" stroke="#30363d" opacity="0.5"/><line x1="283.97" y1="40" x2="283.97" y2="220" stroke="#30363d" opacity="0.5"/><line x1="365.29" y1="40" x2="365.29" y2="220" stroke="#30363d" opacity="0.5"/><line x1="446.61" y1="40" x2="446.61" y2="220" stroke="#30363d" opacity="0.5"/><line x1="527.93" y1="40" x2="527.93" y2="220" stroke="#30363d" opacity="0.5"/><line x1="609.26" y1="40" x2="609.26" y2="220" stroke="#30363d" opacity="0.5"/><line x1="690.58" y1="40" x2="690.58" y2="220" stroke="#30363d" opacity="0.5"/><line x1="771.90" y1="40" x2="771.90" y2="220" stroke="#30363d" opacity="0.5"/><line x1="853.22" y1="40" x2="853.22" y2="220" stroke="#30363d" opacity="0.5"/>
    <line x1="40" y1="220" x2="860" y2="220" stroke="#30363d"/>
    <line x1="40" y1="40"   x2="40"   y2="220" stroke="#30363d"/>
    <path d="M 40.00 166.63 L 43.39 166.00 L 46.78 166.00 L 50.17 121.18 L 53.55 115.78 L 56.94 115.78 L 60.33 112.00 L 63.72 108.22 L 67.11 108.22 L 70.50 108.22 L 73.88 108.22 L 77.27 108.22 L 80.66 108.22 L 84.05 108.22 L 87.44 108.22 L 90.83 108.22 L 94.21 108.22 L 97.60 108.22 L 100.99 108.22 L 104.38 108.22 L 107.77 108.22 L 111.16 108.22 L 114.55 109.21 L 117.93 109.12 L 121.32 108.76 L 124.71 108.76 L 128.10 108.76 L 131.49 108.76 L 134.88 108.76 L 138.26 108.76 L 141.65 108.76 L 145.04 108.76 L 148.43 108.76 L 151.82 108.76 L 155.21 108.76 L 158.60 108.76 L 161.98 108.76 L 165.37 108.76 L 168.76 108.76 L 172.15 108.76 L 175.54 108.76 L 178.93 108.76 L 182.31 108.76 L 185.70 108.76 L 189.09 108.76 L 192.48 108.76 L 195.87 108.76 L 199.26 108.76 L 202.64 108.76 L 206.03 108.76 L 209.42 108.76 L 212.81 108.76 L 216.20 108.76 L 219.59 108.76 L 222.98 108.76 L 226.36 108.76 L 229.75 108.76 L 233.14 108.76 L 236.53 108.76 L 239.92 108.76 L 243.31 108.76 L 246.69 108.76 L 250.08 108.76 L 253.47 108.76 L 256.86 108.76 L 260.25 108.76 L 263.64 108.76 L 267.02 108.76 L 270.41 108.76 L 273.80 108.76 L 277.19 108.76 L 280.58 108.76 L 283.97 108.76 L 287.36 108.76 L 290.74 108.76 L 294.13 108.76 L 297.52 108.76 L 300.91 108.76 L 304.30 108.76 L 307.69 108.76 L 311.07 108.76 L 314.46 108.76 L 317.85 108.76 L 321.24 108.76 L 324.63 108.76 L 328.02 108.76 L 331.40 108.76 L 334.79 108.76 L 338.18 108.76 L 341.57 108.76 L 344.96 108.76 L 348.35 108.76 L 351.74 108.76 L 355.12 108.76 L 358.51 108.76 L 361.90 108.76 L 365.29 108.76 L 368.68 108.76 L 372.07 108.76 L 375.45 108.76 L 378.84 108.76 L 382.23 108.76 L 385.62 108.76 L 389.01 108.76 L 392.40 108.76 L 395.79 108.76 L 399.17 108.76 L 402.56 108.76 L 405.95 108.76 L 409.34 108.76 L 412.73 108.76 L 416.12 108.76 L 419.50 108.76 L 422.89 108.76 L 426.28 108.76 L 429.67 108.76 L 433.06 108.76 L 436.45 108.76 L 439.83 108.76 L 443.22 108.76 L 446.61 108.76 L 450.00 108.76 L 453.39 108.76 L 456.78 108.76 L 460.17 108.76 L 463.55 108.76 L 466.94 108.76 L 470.33 108.76 L 473.72 108.76 L 477.11 108.76 L 480.50 108.76 L 483.88 108.76 L 487.27 108.76 L 490.66 108.76 L 494.05 108.76 L 497.44 108.76 L 500.83 108.76 L 504.21 108.76 L 507.60 108.76 L 510.99 108.76 L 514.38 108.76 L 517.77 108.76 L 521.16 108.76 L 524.55 108.94 L 527.93 100.39 L 531.32 81.40 L 534.71 81.40 L 538.10 81.40 L 541.49 81.40 L 544.88 81.40 L 548.26 70.78 L 551.65 70.78 L 555.04 70.78 L 558.43 70.78 L 561.82 70.78 L 565.21 70.78 L 568.60 70.78 L 571.98 70.78 L 575.37 70.78 L 578.76 70.78 L 582.15 70.78 L 585.54 70.78 L 588.93 70.78 L 592.31 70.78 L 595.70 70.78 L 599.09 70.78 L 602.48 70.78 L 605.87 70.78 L 609.26 70.78 L 612.64 70.78 L 616.03 70.78 L 619.42 70.78 L 622.81 70.78 L 626.20 70.78 L 629.59 70.78 L 632.98 70.78 L 636.36 70.78 L 639.75 70.78 L 643.14 70.78 L 646.53 70.78 L 649.92 70.78 L 653.31 70.78 L 656.69 70.78 L 660.08 70.78 L 663.47 70.78 L 666.86 70.78 L 670.25 70.78 L 673.64 70.78 L 677.02 70.78 L 680.41 70.78 L 683.80 70.78 L 687.19 70.78 L 690.58 70.78 L 693.97 70.78 L 697.36 70.78 L 700.74 70.78 L 704.13 70.78 L 707.52 70.78 L 710.91 70.78 L 714.30 70.78 L 717.69 70.78 L 721.07 70.78 L 724.46 70.78 L 727.85 70.78 L 731.24 70.78 L 734.63 70.78 L 738.02 70.78 L 741.40 70.78 L 744.79 70.78 L 748.18 70.78 L 751.57 70.78 L 754.96 70.78 L 758.35 70.78 L 761.74 70.78 L 765.12 70.78 L 768.51 70.78 L 771.90 70.78 L 775.29 70.78 L 778.68 70.78 L 782.07 70.78 L 785.45 70.78 L 788.84 70.78 L 792.23 70.78 L 795.62 70.78 L 799.01 70.78 L 802.40 70.78 L 805.79 70.78 L 809.17 70.78 L 812.56 70.78 L 815.95 70.78 L 819.34 70.78 L 822.73 70.78 L 826.12 70.78 L 829.50 70.78 L 832.89 70.78 L 836.28 70.78 L 839.67 70.78 L 843.06 70.78 L 846.45 70.78 L 849.83 70.78 L 853.22 70.78 L 856.61 70.78 L 860.00 70.78" fill="none" stroke="#3fb950" stroke-width="2"/>
    <circle cx="860.00" cy="70.78" r="3" fill="#3fb950"/>
    <text x="40.00" y="235.00" font-size="9" fill="#c9d1d9" text-anchor="middle" transform="rotate(-45 40.00 235.00)">28.08.2025</text><text x="121.32" y="235.00" font-size="9" fill="#c9d1d9" text-anchor="middle" transform="rotate(-45 121.32 235.00)">28.08.2025</text><text x="202.64" y="235.00" font-size="9" fill="#c9d1d9" text-anchor="middle" transform="rotate(-45 202.64 235.00)">15.09.2025</text><text x="283.97" y="235.00" font-size="9" fill="#c9d1d9" text-anchor="middle" transform="rotate(-45 283.97 235.00)">05.10.2025</text><text x="365.29" y="235.00" font-size="9" fill="#c9d1d9" text-anchor="middle" transform="rotate(-45 365.29 235.00)">27.10.2025</text><text x="446.61" y="235.00" font-size="9" fill="#c9d1d9" text-anchor="middle" transform="rotate(-45 446.61 235.00)">19.11.2025</text><text x="527.93" y="235.00" font-size="9" fill="#c9d1d9" text-anchor="middle" transform="rotate(-45 527.93 235.00)">04.12.2025</text><text x="609.26" y="235.00" font-size="9" fill="#c9d1d9" text-anchor="middle" transform="rotate(-45 609.26 235.00)">19.12.2025</text><text x="690.58" y="235.00" font-size="9" fill="#c9d1d9" text-anchor="middle" transform="rotate(-45 690.58 235.00)">11.01.2026</text><text x="771.90" y="235.00" font-size="9" fill="#c9d1d9" text-anchor="middle" transform="rotate(-45 771.90 235.00)">02.02.2026</text><text x="853.22" y="235.00" font-size="9" fill="#c9d1d9" text-anchor="middle" transform="rotate(-45 853.22 235.00)">25.02.2026</text>
  </g>
</svg>