<svg xmlns="http://www.w3.org/2000/svg" width="900" height="290" style="font-family: -apple-system, BlinkMacSystemFont, 'Segoe UI', Helvetica, Arial, sans-serif;">
  <rect width="100%" height="100%" fill="#0d1117"/>
  <g>
    <line x1="40" y1="220.00" x2="860" y2="220.00" stroke="#30363d"/><text x="32" y="224.00" font-size="10" fill="#c9d1d9" text-anchor="end">0</text><line x1="40" y1="175.00" x2="860" y2="175.00" stroke="#30363d"/><text x="32" y="179.00" font-size="10" fill="#c9d1d9" text-anchor="end">500</text><line x1="40" y1="130.00" x2="860" y2="130.00" stroke="#30363d"/><text x="32" y="134.00" font-size="10" fill="#c9d1d9" text-anchor="end">1k</text><line x1="40" y1="85.00" x2="860" y2="85.00" stroke="#30363d"/><text x="32" y="89.00" font-size="10" fill="#c9d1d9" text-anchor="end">1.5k</text><line x1="40" y1="40.00" x2="860" y2="40.00" stroke="#30363d"/><text x="32" y="44.00" font-size="10" fill="#c9d1d9" text-anchor="end">2k</text>
    <line x1="40.00" y1="40" x2="40.00" y2="220" stroke="#30363d" opacity="0.5"/><line x1="119.24" y1="40" x2="119.24" y2="220" stroke="#30363d" opacity="0.5"/><line x1="198.49" y1="40" x2="198.49" y2="220" stroke="#30363d" opacity="0.5"/><line x1="277.73" y1="40" x2="277.73" y2="220" stroke="#30363d" opacity="0.5"/><line x1="356.97" y1="40" x2="356.97" y2="220" stroke="#30363d" opacity="0.5"/><line x1="436.22" y1="40" x2="436.22" y2="220" stroke="#30363d" opacity="0.5"/><line x1="515.46" y1="40" x2="515.46" y2="220" stroke="#30363d" opacity="0.5"/><line x1="594.71" y1="40" x2="594.71" y2="220" stroke="#30363d" opacity="0.5"/><line x1="673.95" y1="40" x2="673.95" y2="220" stroke="#30363d" opacity="0.5"/><line x1="753.19" y1="40" x2="753.19" y2="220" stroke="#30363d" opacity="0.5"/><line x1="832.44" y1="40" x2="832.44" y2="220" stroke="#30363d" opacity="0.5"/>
    <line x1="40" y1="220" x2="860" y2="220" stroke="#30363d"/>
    <line x1="40" y1="40"   x2="40"   y2="220" stroke="#30363d"/>
    <path d="M 40.00 166.63 L 43.45 166.00 L 46.89 166.00 L 50.34 121.18 L 53.78 115.78 L 57.23 115.78 L 60.67 112.00 L 64.12 108.22 L 67.56 108.22 L 71.01 108.22 L 74.45 108.22 L 77.90 108.22 L 81.34 108.22 L 84.79 108.22 L 88.24 108.22 L 91.68 108.22 L 95.13 108.22 L 98.57 108.22 L 102.02 108.22 L 105.46 108.22 L 108.91 108.22 L 112.35 108.22 L 115.80 109.21 L 119.24 109.12 L 122.69 108.76 L 126.13 108.76 L 129.58 108.76 L 133.03 108.76 L 136.47 108.76 L 139.92 108.76 L 143.36 108.76 L 146.81 108.76 L 150.25 108.76 L 153.70 108.76 L 157.14 108.76 L 160.59 108.76 L 164.03 108.76 L 167.48 108.76 L 170.92 108.76 L 174.37 108.76 L 177.82 108.76 L 181.26 108.76 L 184.71 108.76 L 188.15 108.76 L 191.60 108.76 L 195.04 108.76 L 198.49 108.76 L 201.93 108.76 L 205.38 108.76 L 208.82 108.76 L 212.27 108.76 L 215.71 108.76 L 219.16 108.76 L 222.61 108.76 L 226.05 108.76 L 229.50 108.76 L 232.94 108.76 L 236.39 108.76 L 239.83 108.76 L 243.28 108.76 L 246.72 108.76 L 250.17 108.76 L 253.61 108.76 L 257.06 108.76 L 260.50 108.76 L 263.95 108.76 L 267.39 108.76 L 270.84 108.76 L 274.29 108.76 L 277.73 108.76 L 281.18 108.76 L 284.62 108.76 L 288.07 108.76 L 291.51 108.76 L 294.96 108.76 L 298.40 108.76 L 301.85 108.76 L 305.29 108.76 L 308.74 108.76 L 312.18 108.76 L 315.63 108.76 L 319.08 108.76 L 322.52 108.76 L 325.97 108.76 L 329.41 108.76 L 332.86 108.76 L 336.30 108.76 L 339.75 108.76 L 343.19 108.76 L 346.64 108.76 L 350.08 108.76 L 353.53 108.76 L 356.97 108.76 L 360.42 108.76 L 363.87 108.76 L 367.31 108.76 L 370.76 108.76 L 374.20 108.76 L 377.65 108.76 L 381.09 108.76 L 384.54 108.76 L 387.98 108.76 L 391.43 108.76 L 394.87 108.76 L 398.32 108.76 L 401.76 108.76 L 405.21 108.76 L 408.66 108.76 L 412.10 108.76 L 415.55 108.76 L 418.99 108.76 L 422.44 108.76 L 425.88 108.76 L 429.33 108.76 L 432.77 108.76 L 436.22 108.76 L 439.66 108.76 L 443.11 108.76 L 446.55 108.76 L 450.00 108.76 L 453.45 108.76 L 456.89 108.76 L 460.34 108.76 L 463.78 108.76 L 467.23 108.76 L 470.67 108.76 L 474.12 108.76 L 477.56 108.76 L 481.01 108.76 L 484.45 108.76 L 487.90 108.76 L 491.34 108.76 L 494.79 108.76 L 498.24 108.76 L 501.68 108.76 L 505.13 108.76 L 508.57 108.76 L 512.02 108.76 L 515.46 108.76 L 518.91 108.76 L 522.35 108.76 L 525.80 108.76 L 529.24 108.76 L 532.69 108.94 L 536.13 100.39 L 539.58 81.40 L 543.03 81.40 L 546.47 81.40 L 549.92 81.40 L 553.36 81.40 L 556.81 70.78 L 560.25 70.78 L 563.70 70.78 L 567.14 70.78 L 570.59 70.78 L 574.03 70.78 L 577.48 70.78 L 580.92 70.78 L 584.37 70.78 L 587.82 70.78 L 591.26 70.78 L 594.71 70.78 L 598.15 70.78 L 601.60 70.78 L 605.04 70.78 L 608.49 70.78 L 611.93 70.78 L 615.38 70.78 L 618.82 70.78 L 622.27 70.78 L 625.71 70.78 L 629.16 70.78 L 632.61 70.78 L 636.05 70.78 L 639.50 70.78 L 642.94 70.78 L 646.39 70.78 L 649.83 70.78 L 653.28 70.78 L 656.72 70.78 L 660.17 70.78 L 663.61 70.78 L 667.06 70.78 L 670.50 70.78 L 673.95 70.78 L 677.39 70.78 L 680.84 70.78 L 684.29 70.78 L 687.73 70.78 L 691.18 70.78 L 694.62 70.78 L 698.07 70.78 L 701.51 70.78 L 704.96 70.78 L 708.40 70.78 L 711.85 70.78 L 715.29 70.78 L 718.74 70.78 L 722.18 70.78 L 725.63 70.78 L 729.08 70.78 L 732.52 70.78 L 735.97 70.78 L 739.41 70.78 L 742.86 70.78 L 746.30 70.78 L 749.75 70.78 L 753.19 70.78 L 756.64 70.78 L 760.08 70.78 L 763.53 70.78 L 766.97 70.78 L 770.42 70.78 L 773.87 70.78 L 777.31 70.78 L 780.76 70.78 L 784.20 70.78 L 787.65 70.78 L 791.09 70.78 L 794.54 70.78 L 797.98 70.78 L 801.43 70.78 L 804.87 70.78 L 808.32 70.78 L 811.76 70.78 L 815.21 70.78 L 818.66 70.78 L 822.10 70.78 L 825.55 70.78 L 828.99 70.78 L 832.44 70.78 L 835.88 70.78 L 839.33 70.78 L 842.77 70.78 L 846.22 70.78 L 849.66 70.78 L 853.11 70.78 L 856.55 70.78 L 860.00 70.78" fill="none" stroke="#3fb950" stroke-width="2"/>
    <circle cx="860.00" cy="70.78" r="3" fill="#3fb950"/>
    <text x="40.00" y="235.00" font-size="9" fill="#c9d1d9" text-anchor="middle" transform="rotate(-45 40.00 235.00)">28.08.2025</text><text x="119.24" y="235.00" font-size="9" fill="#c9d1d9" text-anchor="middle" transform="rotate(-45 119.24 235.00)">28.08.2025</text><text x="198.49" y="235.00" font-size="9" fill="#c9d1d9" text-anchor="middle" transform="rotate(-45 198.49 235.00)">15.09.2025</text><text x="277.73" y="235.00" font-size="9" fill="#c9d1d9" text-anchor="middle" transform="rotate(-45 277.73 235.00)">02.10.2025</text><text x="356.97" y="235.00" font-size="9" fill="#c9d1d9" text-anchor="middle" transform="rotate(-45 356.97 235.00)">24.10.2025</text><text x="436.22" y="235.00" font-size="9" fill="#c9d1d9" text-anchor="middle" transform="rotate(-45 436.22 235.00)">14.11.2025</text><text x="515.46" y="235.00" font-size="9" fill="#c9d1d9" text-anchor="middle" transform="rotate(-45 515.46 235.00)">30.11.2025</text><text x="594.71" y="235.00" font-size="9" fill="#c9d1d9" text-anchor="middle" transform="rotate(-45 594.71 235.00)">13.12.2025</text><text x="673.95" y="235.00" font-size="9" fill="#c9d1d9" text-anchor="middle" transform="rotate(-45 673.95 235.00)">03.01.2026</text><text x="753.19" y="235.00" font-size="9" fill="#c9d1d9" text-anchor="middle" transform="rotate(-45 753.19 235.00)">24.01.2026</text><text x="832.44" y="235.00" font-size="9" fill="#c9d1d9" text-anchor="middle" transform="rotate(-45 832.44 235.00)">15.02.2026</text>
  </g>
</svg>