<svg xmlns="http://www.w3.org/2000/svg" width="900" height="290" style="font-family: -apple-system, BlinkMacSystemFont, 'Segoe UI', Helvetica, Arial, sans-serif;">
  <rect width="100%" height="100%" fill="#0d1117"/>
  <g>
    <line x1="40" y1="220.00" x2="860" y2="220.00" stroke="#30363d"/><text x="32" y="224.00" font-size="10" fill="#c9d1d9" text-anchor="end">0</text><line x1="40" y1="175.00" x2="860" y2="175.00" stroke="#30363d"/><text x="32" y="179.00" font-size="10" fill="#c9d1d9" text-anchor="end">500</text><line x1="40" y1="130.00" x2="860" y2="130.00" stroke="#30363d"/><text x="32" y="134.00" font-size="10" fill="#c9d1d9" text-anchor="end">1k</text><line x1="40" y1="85.00" x2="860" y2="85.00" stroke="#30363d"/><text x="32" y="89.00" font-size="10" fill="#c9d1d9" text-anchor="end">1.5k</text><line x1="40" y1="40.00" x2="860" y2="40.00" stroke="#30363d"/><text x="32" y="44.00" font-size="10" fill="#c9d1d9" text-anchor="end">2k</text>
    <line x1="40.00" y1="40" x2="40.00" y2="220" stroke="#30363d" opacity="0.5"/><line x1="121.66" y1="40" x2="121.66" y2="220" stroke="#30363d" opacity="0.5"/><line x1="203.32" y1="40" x2="203.32" y2="220" stroke="#30363d" opacity="0.5"/><line x1="284.98" y1="40" x2="284.98" y2="220" stroke="#30363d" opacity="0.5"/><line x1="366.64" y1="40" x2="366.64" y2="220" stroke="#30363d" opacity="0.5"/><line x1="448.30" y1="40" x2="448.30" y2="220" stroke="#30363d" opacity="0.5"/><line x1="529.96" y1="40" x2="529.96" y2="220" stroke="#30363d" opacity="0.5"/><line x1="611.62" y1="40" x2="611.62" y2="220" stroke="#30363d" opacity="0.5"/><line x1="693.28" y1="40" x2="693.28" y2="220" stroke="#30363d" opacity="0.5"/><line x1="774.94" y1="40" x2="774.94" y2="220" stroke="#30363d" opacity="0.5"/><line x1="856.60" y1="40" x2="856.60" y2="220" stroke="#30363d" opacity="0.5"/>
    <line x1="40" y1="220" x2="860" y2="220" stroke="#30363d"/>
    <line x1="40" y1="40"   x2="40"   y2="220" stroke="#30363d"/>
    <path d="M 40.00 166.63 L 43.40 166.00 L 46.80 166.00 L 50.21 121.18 L 53.61 115.78 L 57.01 115.78 L 60.41 112.00 L 63.82 108.22 L 67.22 108.22 L 70.62 108.22 L 74.02 108.22 L 77.43 108.22 L 80.83 108.22 L 84.23 108.22 L 87.63 108.22 L 91.04 108.22 L 94.44 108.22 L 97.84 108.22 L 101.24 108.22 L 104.65 108.22 L 108.05 108.22 L 111.45 108.22 L 114.85 109.21 L 118.26 109.12 L 121.66 108.76 L 125.06 108.76 L 128.46 108.76 L 131.87 108.76 L 135.27 108.76 L 138.67 108.76 L 142.07 108.76 L 145.48 108.76 L 148.88 108.76 L 152.28 108.76 L 155.68 108.76 L 159.09 108.76 L 162.49 108.76 L 165.89 108.76 L 169.29 108.76 L 172.70 108.76 L 176.10 108.76 L 179.50 108.76 L 182.90 108.76 L 186.31 108.76 L 189.71 108.76 L 193.11 108.76 L 196.51 108.76 L 199.92 108.76 L 203.32 108.76 L 206.72 108.76 L 210.12 108.76 L 213.53 108.76 L 216.93 108.76 L 220.33 108.76 L 223.73 108.76 L 227.14 108.76 L 230.54 108.76 L 233.94 108.76 L 237.34 108.76 L 240.75 108.76 L 244.15 108.76 L 247.55 108.76 L 250.95 108.76 L 254.36 108.76 L 257.76 108.76 L 261.16 108.76 L 264.56 108.76 L 267.97 108.76 L 271.37 108.76 L 274.77 108.76 L 278.17 108.76 L 281.58 108.76 L 284.98 108.76 L 288.38 108.76 L 291.78 108.76 L 295.19 108.76 L 298.59 108.76 L 301.99 108.76 L 305.39 108.76 L 308.80 108.76 L 312.20 108.76 L 315.60 108.76 L 319.00 108.76 L 322.41 108.76 L 325.81 108.76 L 329.21 108.76 L 332.61 108.76 L 336.02 108.76 L 339.42 108.76 L 342.82 108.76 L 346.22 108.76 L 349.63 108.76 L 353.03 108.76 L 356.43 108.76 L 359.83 108.76 L 363.24 108.76 L 366.64 108.76 L 370.04 108.76 L 373.44 108.76 L 376.85 108.76 L 380.25 108.76 L 383.65 108.76 L 387.05 108.76 L 390.46 108.76 L 393.86 108.76 L 397.26 108.76 L 400.66 108.76 L 404.07 108.76 L 407.47 108.76 L 410.87 108.76 L 414.27 108.76 L 417.68 108.76 L 421.08 108.76 L 424.48 108.76 L 427.88 108.76 L 431.29 108.76 L 434.69 108.76 L 438.09 108.76 L 441.49 108.76 L 444.90 108.76 L 448.30 108.76 L 451.70 108.76 L 455.10 108.76 L 458.51 108.76 L 461.91 108.76 L 465.31 108.76 L 468.71 108.76 L 472.12 108.76 L 475.52 108.76 L 478.92 108.76 L 482.32 108.76 L 485.73 108.76 L 489.13 108.76 L 492.53 108.76 L 495.93 108.76 L 499.34 108.76 L 502.74 108.76 L 506.14 108.76 L 509.54 108.76 L 512.95 108.76 L 516.35 108.76 L 519.75 108.76 L 523.15 108.76 L 526.56 108.94 L 529.96 100.39 L 533.36 81.40 L 536.76 81.40 L 540.17 81.40 L 543.57 81.40 L 546.97 81.40 L 550.37 70.78 L 553.78 70.78 L 557.18 70.78 L 560.58 70.78 L 563.98 70.78 L 567.39 70.78 L 570.79 70.78 L 574.19 70.78 L 577.59 70.78 L 581.00 70.78 L 584.40 70.78 L 587.80 70.78 L 591.20 70.78 L 594.61 70.78 L 598.01 70.78 L 601.41 70.78 L 604.81 70.78 L 608.22 70.78 L 611.62 70.78 L 615.02 70.78 L 618.42 70.78 L 621.83 70.78 L 625.23 70.78 L 628.63 70.78 L 632.03 70.78 L 635.44 70.78 L 638.84 70.78 L 642.24 70.78 L 645.64 70.78 L 649.05 70.78 L 652.45 70.78 L 655.85 70.78 L 659.25 70.78 L 662.66 70.78 L 666.06 70.78 L 669.46 70.78 L 672.86 70.78 L 676.27 70.78 L 679.67 70.78 L 683.07 70.78 L 686.47 70.78 L 689.88 70.78 L 693.28 70.78 L 696.68 70.78 L 700.08 70.78 L 703.49 70.78 L 706.89 70.78 L 710.29 70.78 L 713.69 70.78 L 717.10 70.78 L 720.50 70.78 L 723.90 70.78 L 727.30 70.78 L 730.71 70.78 L 734.11 70.78 L 737.51 70.78 L 740.91 70.78 L 744.32 70.78 L 747.72 70.78 L 751.12 70.78 L 754.52 70.78 L 757.93 70.78 L 761.33 70.78 L 764.73 70.78 L 768.13 70.78 L 771.54 70.78 L 774.94 70.78 L 778.34 70.78 L 781.74 70.78 L 785.15 70.78 L 788.55 70.78 L 791.95 70.78 L 795.35 70.78 L 798.76 70.78 L 802.16 70.78 L 805.56 70.78 L 808.96 70.78 L 812.37 70.78 L 815.77 70.78 L 819.17 70.78 L 822.57 70.78 L 825.98 70.78 L 829.38 70.78 L 832.78 70.78 L 836.18 70.78 L 839.59 70.78 L 842.99 70.78 L 846.39 70.78 L 849.79 70.78 L 853.20 70.78 L 856.60 70.78 L 860.00 70.78" fill="none" stroke="#3fb950" stroke-width="2"/>
    <circle cx="860.00" cy="70.78" r="3" fill="#3fb950"/>
    <text x="40.00" y="235.00" font-size="9" fill="#c9d1d9" text-anchor="middle" transform="rotate(-45 40.00 235.00)">28.08.2025</text><text x="121.66" y="235.00" font-size="9" fill="#c9d1d9" text-anchor="middle" transform="rotate(-45 121.66 235.00)">28.08.2025</text><text x="203.32" y="235.00" font-size="9" fill="#c9d1d9" text-anchor="middle" transform="rotate(-45 203.32 235.00)">15.09.2025</text><text x="284.98" y="235.00" font-size="9" fill="#c9d1d9" text-anchor="middle" transform="rotate(-45 284.98 235.00)">05.10.2025</text><text x="366.64" y="235.00" font-size="9" fill="#c9d1d9" text-anchor="middle" transform="rotate(-45 366.64 235.00)">27.10.2025</text><text x="448.30" y="235.00" font-size="9" fill="#c9d1d9" text-anchor="middle" transform="rotate(-45 448.30 235.00)">19.11.2025</text><text x="529.96" y="235.00" font-size="9" fill="#c9d1d9" text-anchor="middle" transform="rotate(-45 529.96 235.00)">04.12.2025</text><text x="611.62" y="235.00" font-size="9" fill="#c9d1d9" text-anchor="middle" transform="rotate(-45 611.62 235.00)">19.12.2025</text><text x="693.28" y="235.00" font-size="9" fill="#c9d1d9" text-anchor="middle" transform="rotate(-45 693.28 235.00)">11.01.2026</text><text x="774.94" y="235.00" font-size="9" fill="#c9d1d9" text-anchor="middle" transform="rotate(-45 774.94 235.00)">02.02.2026</text><text x="856.60" y="235.00" font-size="9" fill="#c9d1d9" text-anchor="middle" transform="rotate(-45 856.60 235.00)">25.02.2026</text>
  </g>
</svg>