<svg xmlns="http://www.w3.org/2000/svg" width="900" height="290" style="font-family: -apple-system, BlinkMacSystemFont, 'Segoe UI', Helvetica, Arial, sans-serif;">
  <rect width="100%" height="100%" fill="white"/>
  <g>
    <line x1="40" y1="220.00" x2="860" y2="220.00" stroke="#e5e7eb"/><text x="32" y="224.00" font-size="10" fill="#111827" text-anchor="end">0</text><line x1="40" y1="175.00" x2="860" y2="175.00" stroke="#e5e7eb"/><text x="32" y="179.00" font-size="10" fill="#111827" text-anchor="end">500</text><line x1="40" y1="130.00" x2="860" y2="130.00" stroke="#e5e7eb"/><text x="32" y="134.00" font-size="10" fill="#111827" text-anchor="end">1k</text><line x1="40" y1="85.00" x2="860" y2="85.00" stroke="#e5e7eb"/><text x="32" y="89.00" font-size="10" fill="#111827" text-anchor="end">1.5k</text><line x1="40" y1="40.00" x2="860" y2="40.00" stroke="#e5e7eb"/><text x="32" y="44.00" font-size="10" fill="#111827" text-anchor="end">2k</text>
    <line x1="40.00" y1="40" x2="40.00" y2="220" stroke="#e5e7eb" opacity="0.5"/><line x1="122.34" y1="40" x2="122.34" y2="220" stroke="#e5e7eb" opacity="0.5"/><line x1="204.69" y1="40" x2="204.69" y2="220" stroke="#e5e7eb" opacity="0.5"/><line x1="287.03" y1="40" x2="287.03" y2="220" stroke="#e5e7eb" opacity="0.5"/><line x1="369.37" y1="40" x2="369.37" y2="220" stroke="#e5e7eb" opacity="0.5"/><line x1="451.72" y1="40" x2="451.72" y2="220" stroke="#e5e7eb" opacity="0.5"/><line x1="534.06" y1="40" x2="534.06" y2="220" stroke="#e5e7eb" opacity="0.5"/><line x1="616.40" y1="40" x2="616.40" y2="220" stroke="#e5e7eb" opacity="0.5"/><line x1="698.74" y1="40" x2="698.74" y2="220" stroke="#e5e7eb" opacity="0.5"/><line x1="781.09" y1="40" x2="781.09" y2="220" stroke="#e5e7eb" opacity="0.5"/>
    <line x1="40" y1="220" x2="860" y2="220" stroke="#9ca3af"/>
    <line x1="40" y1="40"   x2="40"   y2="220" stroke="#9ca3af"/>
    <path d="M 40.00 166.63 L 43.43 166.00 L 46.86 166.00 L 50.29 121.18 L 53.72 115.78 L 57.15 115.78 L 60.59 112.00 L 64.02 108.22 L 67.45 108.22 L 70.88 108.22 L 74.31 108.22 L 77.74 108.22 L 81.17 108.22 L 84.60 108.22 L 88.03 108.22 L 91.46 108.22 L 94.90 108.22 L 98.33 108.22 L 101.76 108.22 L 105.19 108.22 L 108.62 108.22 L 112.05 108.22 L 115.48 109.21 L 118.91 109.12 L 122.34 108.76 L 125.77 108.76 L 129.21 108.76 L 132.64 108.76 L 136.07 108.76 L 139.50 108.76 L 142.93 108.76 L 146.36 108.76 L 149.79 108.76 L 153.22 108.76 L 156.65 108.76 L 160.08 108.76 L 163.51 108.76 L 166.95 108.76 L 170.38 108.76 L 173.81 108.76 L 177.24 108.76 L 180.67 108.76 L 184.10 108.76 L 187.53 108.76 L 190.96 108.76 L 194.39 108.76 L 197.82 108.76 L 201.26 108.76 L 204.69 108.76 L 208.12 108.76 L 211.55 108.76 L 214.98 108.76 L 218.41 108.76 L 221.84 108.76 L 225.27 108.76 L 228.70 108.76 L 232.13 108.76 L 235.56 108.76 L 239.00 108.76 L 242.43 108.76 L 245.86 108.76 L 249.29 108.76 L 252.72 108.76 L 256.15 108.76 L 259.58 108.76 L 263.01 108.76 L 266.44 108.76 L 269.87 108.76 L 273.31 108.76 L 276.74 108.76 L 280.17 108.76 L 283.60 108.76 L 287.03 108.76 L 290.46 108.76 L 293.89 108.76 L 297.32 108.76 L 300.75 108.76 L 304.18 108.76 L 307.62 108.76 L 311.05 108.76 L 314.48 108.76 L 317.91 108.76 L 321.34 108.76 L 324.77 108.76 L 328.20 108.76 L 331.63 108.76 L 335.06 108.76 L 338.49 108.76 L 341.92 108.76 L 345.36 108.76 L 348.79 108.76 L 352.22 108.76 L 355.65 108.76 L 359.08 108.76 L 362.51 108.76 L 365.94 108.76 L 369.37 108.76 L 372.80 108.76 L 376.23 108.76 L 379.67 108.76 L 383.10 108.76 L 386.53 108.76 L 389.96 108.76 L 393.39 108.76 L 396.82 108.76 L 400.25 108.76 L 403.68 108.76 L 407.11 108.76 L 410.54 108.76 L 413.97 108.76 L 417.41 108.76 L 420.84 108.76 L 424.27 108.76 L 427.70 108.76 L 431.13 108.76 L 434.56 108.76 L 437.99 108.76 L 441.42 108.76 L 444.85 108.76 L 448.28 108.76 L 451.72 108.76 L 455.15 108.76 L 458.58 108.76 L 462.01 108.76 L 465.44 108.76 L 468.87 108.76 L 472.30 108.76 L 475.73 108.76 L 479.16 108.76 L 482.59 108.76 L 486.03 108.76 L 489.46 108.76 L 492.89 108.76 L 496.32 108.76 L 499.75 108.76 L 503.18 108.76 L 506.61 108.76 L 510.04 108.76 L 513.47 108.76 L 516.90 108.76 L 520.33 108.76 L 523.77 108.76 L 527.20 108.76 L 530.63 108.94 L 534.06 100.39 L 537.49 81.40 L 540.92 81.40 L 544.35 81.40 L 547.78 81.40 L 551.21 81.40 L 554.64 70.78 L 558.08 70.78 L 561.51 70.78 L 564.94 70.78 L 568.37 70.78 L 571.80 70.78 L 575.23 70.78 L 578.66 70.78 L 582.09 70.78 L 585.52 70.78 L 588.95 70.78 L 592.38 70.78 L 595.82 70.78 L 599.25 70.78 L 602.68 70.78 L 606.11 70.78 L 609.54 70.78 L 612.97 70.78 L 616.40 70.78 L 619.83 70.78 L 623.26 70.78 L 626.69 70.78 L 630.13 70.78 L 633.56 70.78 L 636.99 70.78 L 640.42 70.78 L 643.85 70.78 L 647.28 70.78 L 650.71 70.78 L 654.14 70.78 L 657.57 70.78 L 661.00 70.78 L 664.44 70.78 L 667.87 70.78 L 671.30 70.78 L 674.73 70.78 L 678.16 70.78 L 681.59 70.78 L 685.02 70.78 L 688.45 70.78 L 691.88 70.78 L 695.31 70.78 L 698.74 70.78 L 702.18 70.78 L 705.61 70.78 L 709.04 70.78 L 712.47 70.78 L 715.90 70.78 L 719.33 70.78 L 722.76 70.78 L 726.19 70.78 L 729.62 70.78 L 733.05 70.78 L 736.49 70.78 L 739.92 70.78 L 743.35 70.78 L 746.78 70.78 L 750.21 70.78 L 753.64 70.78 L 757.07 70.78 L 760.50 70.78 L 763.93 70.78 L 767.36 70.78 L 770.79 70.78 L 774.23 70.78 L 777.66 70.78 L 781.09 70.78 L 784.52 70.78 L 787.95 70.78 L 791.38 70.78 L 794.81 70.78 L 798.24 70.78 L 801.67 70.78 L 805.10 70.78 L 808.54 70.78 L 811.97 70.78 L 815.40 70.78 L 818.83 70.78 L 822.26 70.78 L 825.69 70.78 L 829.12 70.78 L 832.55 70.78 L 835.98 70.78 L 839.41 70.78 L 842.85 70.78 L 846.28 70.78 L 849.71 70.78 L 853.14 70.78 L 856.57 70.78 L 860.00 70.78" fill="none" stroke="#111827" stroke-width="2"/>
    <circle cx="860.00" cy="70.78" r="3" fill="#111827"/>
    <text x="40.00" y="235.00" font-size="9" fill="#111827" text-anchor="middle" transform="rotate(-45 40.00 235.00)">28.08.2025</text><text x="122.34" y="235.00" font-size="9" fill="#111827" text-anchor="middle" transform="rotate(-45 122.34 235.00)">28.08.2025</text><text x="204.69" y="235.00" font-size="9" fill="#111827" text-anchor="middle" transform="rotate(-45 204.69 235.00)">15.09.2025</text><text x="287.03" y="235.00" font-size="9" fill="#111827" text-anchor="middle" transform="rotate(-45 287.03 235.00)">05.10.2025</text><text x="369.37" y="235.00" font-size="9" fill="#111827" text-anchor="middle" transform="rotate(-45 369.37 235.00)">27.10.2025</text><text x="451.72" y="235.00" font-size="9" fill="#111827" text-anchor="middle" transform="rotate(-45 451.72 235.00)">19.11.2025</text><text x="534.06" y="235.00" font-size="9" fill="#111827" text-anchor="middle" transform="rotate(-45 534.06 235.00)">04.12.2025</text><text x="616.40" y="235.00" font-size="9" fill="#111827" text-anchor="middle" transform="rotate(-45 616.40 235.00)">19.12.2025</text><text x="698.74" y="235.00" font-size="9" fill="#111827" text-anchor="middle" transform="rotate(-45 698.74 235.00)">11.01.2026</text><text x="781.09" y="235.00" font-size="9" fill="#111827" text-anchor="middle" transform="rotate(-45 781.09 235.00)">02.02.2026</text>
  </g>
</svg>